<!-- Generator: Adobe Illustrator 21.1.0, SVG Export Plug-In  -->
<svg version="1.1"
	 xmlns="http://www.w3.org/2000/svg" xmlns:xlink="http://www.w3.org/1999/xlink"
	 x="0px" y="0px" width="1054.1px" height="162.8px" viewBox="0 0 1054.1 162.8" style="enable-background:new 0 0 1054.1 162.8;"
	 xml:space="preserve">
<style type="text/css">
	.st0{fill:#060E9F;}
	.st1{fill:#D52B1E;}
	.st2{fill:none;stroke:#060E9F;stroke-width:2;stroke-miterlimit:10;}
</style>
<defs>
</defs>
<path class="st0" d="M450.4,95.2h23.1v3.1c-6.3,0.3-6.8,1.5-6.8,6.5v41.5c0,9,5.1,13.5,12.3,13.5c8.2,0,13.2-5.2,13.2-13.8v-40.4
	c0-5-1.5-7.2-7.4-7.5V95h18.4v3.1c-5.9,0.3-7.4,2.5-7.4,7.5v38.2c0,11.9-5.2,19-18.6,19c-13.5,0-19.8-7.3-19.8-19.3v-38.8
	c0-5-0.6-6.1-6.8-6.5v-3.1H450.4z"/>
<path class="st0" d="M501.8,161.3v-3.1c4.7-0.2,6.1-1.9,6.1-4.8v-30.1c0-4.2-1.1-4.9-6.4-5v-3.1l14.1-0.7v9.3h0.2
	c2.6-5.3,6.4-9.9,13-9.9c8,0,11.7,5.2,11.7,13.6v25.6c0,3.3,1.4,4.7,5.9,4.8v3.1h-14.2v-34.3c0-6.4-2.4-8.5-5.7-8.5
	c-5.1,0-10.3,6.7-10.3,16.1V153c0,2.8,1.6,4.7,6.1,4.8v3.1h-20.6V161.3z"/>
<path class="st0" d="M548.7,161.3v-3.1c4.7-0.2,6.1-1.9,6.1-4.8v-30.7c0-4.1-1.1-4.8-6.1-5v-3.1l14.4-0.6v39.3
	c0,2.8,1.6,4.7,6.1,4.8v3.1H548.7z M563.1,100.4c0,3.6-2,6.1-4.9,6.1c-2.8,0-4.9-2.5-4.9-6.1c0-3.6,2-6.1,4.9-6.1
	C561.2,94.2,563.1,96.7,563.1,100.4"/>
<path class="st0" d="M584.2,97.5v17.7h11.6v3.6h-11.6v34c0,4.2,1.5,6,4.1,6c3.2,0,5.6-2,5.6-12.3v-2.7h3.1v4.5
	c0,9.8-3.5,14.1-10.8,14.1c-6.4,0-10.2-4-10.2-11.7V119h-6v-2.8c6.9-2.8,10.6-6.1,11.1-18.5h3.2V97.5z"/>
<path class="st0" d="M609.9,134.4c0-12.4,3.6-17.2,9.1-17.2c5.1,0,8,4.8,8,17.2H609.9z M636.5,138c0-13.9-6.7-23.9-17.4-23.9
	c-10.9,0-18.5,10-18.5,24.1c0,12.1,8,24.2,19.8,24.2c10.8,0,15.5-8.4,16.4-16.9l-3.1-0.6c-0.9,6.6-4,13.9-12.3,13.9
	c-6.5,0-11.4-7.4-11.4-20.8L636.5,138L636.5,138z"/>
<path class="st0" d="M650.7,138.6c0-14.9,3.4-20.8,8.8-20.8c5.9,0,9.4,7.2,9.4,20.8c0,16.6-5.1,20.8-10.2,20.8
	C653.9,159.4,650.7,153.5,650.7,138.6 M662.6,98.2c5,0.2,6.3,0.9,6.3,5v17.3l-0.2,0.1c-1.9-3.8-5.2-6.5-9.7-6.5
	c-10.1,0-17.7,10.3-17.7,24.3c0,15.1,8,24,16.6,24c5.9,0,9.1-3.4,11.1-8h0.2v6.8l13.5-0.6v-3.1c-3.9,0.1-5.6-1.5-5.6-6.7V94.5
	L662.6,95V98.2z"/>
<path class="st0" d="M685.1,161.3v-3.1c5.8-0.3,6.7-1.6,6.7-6.6v-47c0-5-1-6.1-6.7-6.5v-3.1h23.3v3.1c-5.9,0.3-7.2,1.5-7.2,6.5v20
	h20.8v-20c0-5-1.1-6.1-7.2-6.5v-3.1h23.3v3.1c-5.8,0.3-6.7,1.5-6.7,6.5v47c0,5,1,6.1,6.7,6.6v3.1h-23.3v-3.1
	c5.9-0.3,7.2-1.6,7.2-6.6v-23.3h-20.8v23.3c0,5,1.1,6.1,7.2,6.6v3.1H685.1z"/>
<path class="st0" d="M749.2,134.4c0-12.4,3.6-17.2,9.1-17.2c5.1,0,8,4.8,8,17.2H749.2z M775.8,138c0-13.9-6.7-23.9-17.4-23.9
	c-10.9,0-18.6,10-18.6,24.1c0,12.1,7.8,24.2,19.9,24.2c10.8,0,15.5-8.4,16.4-16.9l-3.1-0.6c-0.9,6.6-4,13.9-12.3,13.9
	c-6.5,0-11.4-7.4-11.4-20.8L775.8,138L775.8,138z"/>
<path class="st0" d="M800.5,142.2c0,10.9-4.4,16.7-9.3,16.7c-3,0-5.3-2.5-5.3-7.6c0-8.2,6.9-11.8,14.7-14.6L800.5,142.2L800.5,142.2
	z M813.6,148c-0.2,6.9-0.9,9.1-2.8,9.1c-1.4,0-2-1.3-2-4.1v-26.8c0-7.2-4.1-12.2-14.9-12.2c-8.4,0-14.6,5.2-14.6,11.7
	c0,3.9,1.9,5.8,4.7,5.8s4.8-2.2,4.8-5.6c0-2.8-0.9-5.1-4.1-5.3c2-2.4,4.8-3.5,8.2-3.5c5.1,0,7.6,2.4,7.6,8v7.8
	c-8.3,3.1-23.4,7.6-23.4,18.6c0,6.4,4.3,10.9,11.7,10.9c6.7,0,9.7-3.2,11.9-7.5h0.2c0.6,5.2,3.2,7.5,7.8,7.5c5.9,0,8-4.3,8-14.4
	L813.6,148z"/>
<path class="st0" d="M815.4,161.3v-3.1c4.7-0.2,6.1-1.9,6.1-4.8v-50.1c0-3.3-1.6-5-6.4-5.2V95l14.7-0.6v58.9c0,2.8,1.6,4.7,6.1,4.8
	v3.1h-20.6V161.3z"/>
<path class="st0" d="M850,97.5v17.7h11.6v3.6H850v34c0,4.2,1.5,6,4.1,6c3.2,0,5.6-2,5.6-12.3v-2.7h3.1v4.5c0,9.8-3.5,14.1-10.8,14.1
	c-6.4,0-10.2-4-10.2-11.7V119h-6v-2.8c6.9-2.8,10.6-6.1,11.1-18.5h3.2V97.5z"/>
<path class="st0" d="M862.4,161.3v-3.1c4.7-0.2,6.1-1.9,6.1-4.8v-50.3c0-4.1-1.1-4.8-6.4-5v-3l14.7-0.6V123h0.2
	c1.9-4.2,5.6-8.6,12.1-8.6c7.4,0,12.1,5.2,12.1,13.6v25.6c0,2.8,1.6,4.7,6,4.8v3.1H893v-33.8c0-6.7-2.4-9-5.9-9
	c-4.8,0-10.1,6.4-10.1,15.6v19.2c0,2.8,1.6,4.7,6.1,4.8v3.1H862.4z"/>
<path class="st0" d="M942.9,145.4c-0.9,9.1-5.1,17.3-15.7,17.3c-9.8,0-18.8-8.8-18.8-23c0-12.1,8.3-25.6,20-25.6
	c8.2,0,13.4,5.1,13.4,12.6c0,4.7-1.5,7.2-4.9,7.2c-2.7,0-4.5-2.3-4.5-5.8c0-4.1,1.5-5.8,4-5.8c0.7,0,1,0.3,1.5,0.3l0.2-0.2
	c-1.5-3.5-4.5-5.3-8.1-5.3c-7.2,0-12.1,7.3-12.1,20.9c0,16.3,5,20.9,10.7,20.9c7.8,0,10.3-7.2,11.4-14L942.9,145.4z"/>
<path class="st0" d="M969.9,142.2c0,10.9-4.4,16.8-9.4,16.8c-3.1,0-5.3-2.5-5.3-7.6c0-8.3,6.9-11.9,14.8-14.7V142.2z M982.9,148.3
	c-0.2,7.1-0.9,9.2-2.8,9.2c-1.4,0-2-1.3-2-4.1v-27.1c0-7.3-4.1-12.2-15-12.2c-8.4,0-14.6,5.2-14.6,11.8c0,3.9,1.9,5.8,4.7,5.8
	s4.8-2.2,4.8-5.7c0-2.8-0.9-5.1-4-5.5c2-2.4,4.8-3.5,8.2-3.5c5.1,0,7.7,2.4,7.7,8v8c-8.3,3.1-23.7,7.6-23.7,18.6
	c0,6.4,4.3,10.9,11.8,10.9c6.8,0,9.7-3.2,12.1-7.6h0.2c0.6,5.2,3.2,7.6,7.8,7.6c5.9,0,8-4.3,8-14.6L982.9,148.3z"/>
<path class="st0" d="M987.1,161.4v-3.1c4.1-0.2,5.6-1.9,5.6-4.9v-26.4c0-6.6-1.1-8.8-6-8.9v-3.1l13.3-0.6v11.1h0.2
	c1.3-5,4.7-11.7,10.5-11.7c3.5,0,7.1,3,7.1,8.4c0,4.2-2,6.3-4.5,6.3c-2.2,0-4.3-1.4-4.3-5.7c0-2.4,1.4-4.8,4.1-4.8
	c-0.5-0.8-1.5-1.1-2.5-1.1c-6.5,0.1-9.4,14.3-9.4,22.7v13.8c0,3,1.5,4.7,8.1,4.9v3.1h-21.9V161.4z"/>
<path class="st0" d="M1027.2,134.5c0-12.5,3.6-17.4,9.2-17.4c5.1,0,8.1,4.9,8.1,17.4H1027.2z M1053.8,138.1
	c0-14.1-6.7-24.1-17.4-24.1c-10.9,0-18.5,10.1-18.5,24.4c0,12.1,7.8,24.2,19.9,24.2c10.8,0,15.5-8.4,16.4-16.9l-3.1-0.6
	c-0.9,6.6-4,13.9-12.4,13.9c-6.5,0-11.4-7.3-11.4-20.8h26.5V138.1z"/>
<g>
	<path class="st0" d="M201.4,37.4c-0.7,0.1-1.3,0.2-2,0.2h-4.9v-0.2H201.4z"/>
	<path class="st1" d="M311.4,0.9c3,0,5.4,2.4,5.4,5.4s-2.4,5.4-5.4,5.4S306,9.3,306,6.3C306,3.3,308.4,0.9,311.4,0.9 M311.4,0
		c-3.5,0-6.4,2.8-6.4,6.3s2.8,6.4,6.4,6.4c3.5,0,6.3-2.8,6.3-6.4C317.7,2.8,314.8,0,311.4,0 M310.2,6.7h1.2c0.3,0,1,0,1.1,0.8
		c0.1,1,0,1.9,0.3,2.4h1.2c-0.2-0.5-0.3-1.6-0.3-1.9c0-1.5-0.4-1.8-1.3-1.8l0,0c0.9-0.2,1.6-0.8,1.6-1.7c0-0.9-0.6-1.8-2-1.8h-2.9
		V10h1.2L310.2,6.7L310.2,6.7z M310.2,3.5h1.5c0.8,0,1.1,0.6,1.1,1.1c0,0.6-0.3,1.2-1.1,1.2h-1.5V3.5z"/>
	<path class="st1" d="M283.8,2.1h-42.1v62.9l-19-19.5C230,41.8,235,34.2,235,25.4v-0.6c0-12.5-10.2-22.7-22.7-22.7h-41.8v63.9
		L147.3,2.1h-28.6L101.8,44L86.5,2.1H57.9l-16,39.7c-22.4,1.4-35.2-9-35.2-9L0,44.7c0,0,13.4,10.8,36.9,9.7c2.7-0.1,5.5-0.4,8.4-0.9
		c3.2-0.5,6.3-0.8,9.3-1c9.3-0.5,17.9,0.5,24.9,1.8c7.4,1.5,13.2,3.4,16.3,4.6l-1.5,2.6c-2-0.8-6.7-2.6-13.3-4.1l3.5,10.8h24.4
		l0.8-2.1l5.4-13.3h24.5l5.6,15.4h49.3v-20h3.6l15.6,20h52v-20h18.1c12.5,0,22.7-10.2,22.7-22.7v-0.6
		C306.5,12.3,296.3,2.1,283.8,2.1z M59.5,40l7.8-19.2l7.3,20C70,40.2,64.9,39.9,59.5,40z M120.3,39.9l7.7-19.1l7,19.1H120.3z
		 M211.7,25.3c0,6-4.4,11.1-10.2,12.1c-0.7,0.1-1.3,0.2-2,0.2h-4.9V12.7h4.9c6.7,0,12.3,5.5,12.3,12.3V25.3z M283.2,25.3
		c0,6.7-5.5,12.3-12.3,12.3h-5.2V12.7h5.2c6.7,0,12.3,5.5,12.3,12.3V25.3z"/>
	<path class="st1" d="M53.1,55.1l-4.9,13.1H31.3l4.2-11.3c3.2,0,6.7-0.3,10.4-0.9C48.3,55.5,50.7,55.2,53.1,55.1z"/>
</g>
<g>
	<path d="M368.7,68.1V2.8h21.9l13.1,44.5l13-44.5h21.9v65.3h-13.6V16.7l-14.4,51.4h-14.1l-14.3-51.4v51.4H368.7z"/>
	<path d="M481.5,53.1l13.8,2.1c-1.8,4.6-4.6,8.1-8.4,10.4c-3.8,2.4-8.6,3.6-14.4,3.6c-9.1,0-15.9-2.7-20.3-8.1
		c-3.5-4.3-5.2-9.7-5.2-16.3c0-7.8,2.3-14,6.8-18.4c4.5-4.4,10.3-6.7,17.2-6.7c7.8,0,14,2.3,18.5,7c4.5,4.6,6.7,11.8,6.5,21.4h-34.8
		c0.1,3.7,1.2,6.6,3.4,8.7c2.1,2.1,4.8,3.1,8,3.1c2.2,0,4-0.5,5.5-1.6C479.6,57.2,480.7,55.4,481.5,53.1z M482.3,40.4
		c-0.1-3.6-1.1-6.4-3.1-8.3c-2-1.9-4.4-2.8-7.2-2.8c-3,0-5.5,1-7.5,3c-2,2-2.9,4.7-2.9,8.1H482.3z"/>
	<path d="M549.4,68.1h-12.9v-6.9c-2.1,2.7-4.7,4.7-7.6,6c-2.9,1.3-5.9,2-8.8,2c-6,0-11.2-2.2-15.5-6.6c-4.3-4.4-6.5-10.5-6.5-18.3
		c0-8,2.1-14.1,6.3-18.3c4.2-4.2,9.5-6.3,15.9-6.3c5.9,0,10.9,2.2,15.2,6.6V2.8h13.9V68.1z M512.4,43.5c0,5,0.8,8.7,2.3,11
		c2.2,3.3,5.4,4.9,9.4,4.9c3.2,0,5.9-1.2,8.2-3.7c2.2-2.4,3.4-6.1,3.4-11c0-5.4-1.1-9.3-3.3-11.7c-2.2-2.4-5-3.6-8.4-3.6
		c-3.3,0-6.1,1.2-8.3,3.5C513.5,35.2,512.4,38.8,512.4,43.5z"/>
	<path d="M559.1,68.1V20.8H573v47.3H559.1z M573.7,9.8c0,4.2-3.4,7.7-7.7,7.7s-7.7-3.4-7.7-7.7s3.4-7.7,7.7-7.7S573.7,5.6,573.7,9.8
		z"/>
	<path d="M626.9,34.8L613.2,37c-0.5-2.5-1.5-4.3-3.1-5.6c-1.6-1.2-3.7-1.9-6.4-1.9c-3.5,0-6.2,1.1-8.3,3.2
		c-2.1,2.2-3.1,5.8-3.1,10.8c0,5.6,1,9.6,3.1,11.9c2.1,2.3,4.9,3.5,8.4,3.5c2.6,0,4.8-0.7,6.5-2c1.7-1.4,2.9-3.7,3.6-7l13.6,2.1
		c-1.4,5.6-4.1,9.9-8.2,12.8c-4,2.9-9.4,4.3-16.2,4.3c-7.7,0-13.8-2.2-18.4-6.5c-4.6-4.4-6.8-10.4-6.8-18.1c0-7.8,2.3-13.9,6.9-18.2
		c4.6-4.3,10.8-6.5,18.6-6.5c6.4,0,11.5,1.2,15.2,3.7C622.5,26,625.2,29.7,626.9,34.8z"/>
	<path d="M645.8,35.3l-12.6-2c1.4-4.6,3.9-8,7.3-10.2s8.6-3.3,15.4-3.3c6.2,0,10.8,0.7,13.8,2c3,1.3,5.2,3,6.4,5
		c1.2,2,1.9,5.8,1.9,11.2l-0.1,14.6c0,4.2,0.2,7.2,0.7,9.2c0.4,2,1.3,4.1,2.5,6.3h-13.7c-0.4-0.8-0.8-2.1-1.3-3.7
		c-0.2-0.7-0.4-1.2-0.5-1.5c-2.4,2.1-4.9,3.6-7.6,4.7c-2.7,1-5.6,1.6-8.6,1.6c-5.4,0-9.7-1.3-12.8-4c-3.1-2.6-4.7-6-4.7-10
		c0-2.7,0.7-5.1,2.1-7.1c1.4-2.1,3.4-3.7,6-4.8c2.6-1.1,6.2-2.1,11-2.9c6.5-1.1,11-2.1,13.5-3.1V36c0-2.4-0.7-4.1-2-5.1
		c-1.3-1-3.8-1.5-7.5-1.5c-2.5,0-4.4,0.4-5.8,1.3C647.7,31.5,646.6,33.1,645.8,35.3z M664.4,45.4c-1.8,0.5-4.6,1.2-8.5,1.9
		c-3.9,0.7-6.4,1.5-7.6,2.2c-1.8,1.2-2.7,2.6-2.7,4.4c0,1.8,0.7,3.3,2.2,4.5c1.4,1.3,3.3,1.9,5.5,1.9c2.5,0,4.9-0.7,7.2-2.2
		c1.7-1.1,2.8-2.5,3.3-4.1c0.4-1.1,0.5-3.1,0.5-6.1V45.4z"/>
	<path d="M698.9,68.1H685V20.8h12.9v6.7c2.2-3.2,4.2-5.3,6-6.3c1.8-1,3.8-1.5,6-1.5c3.2,0,6.2,0.8,9.1,2.4L714.7,33
		c-2.3-1.4-4.5-2-6.5-2c-1.9,0-3.6,0.5-4.9,1.4c-1.4,1-2.4,2.7-3.2,5.2c-0.8,2.5-1.2,7.8-1.2,15.9V68.1z"/>
	<path d="M753.4,53.1l13.8,2.1c-1.8,4.6-4.6,8.1-8.4,10.4c-3.8,2.4-8.6,3.6-14.4,3.6c-9.1,0-15.9-2.7-20.3-8.1
		c-3.5-4.3-5.2-9.7-5.2-16.3c0-7.8,2.3-14,6.8-18.4c4.5-4.4,10.3-6.7,17.3-6.7c7.8,0,14,2.3,18.5,7c4.5,4.6,6.7,11.8,6.5,21.4h-34.8
		c0.1,3.7,1.2,6.6,3.4,8.7c2.1,2.1,4.8,3.1,8,3.1c2.2,0,4-0.5,5.5-1.6C751.5,57.2,752.6,55.4,753.4,53.1z M754.2,40.4
		c-0.1-3.6-1.1-6.4-3.1-8.3c-2-1.9-4.4-2.8-7.2-2.8c-3,0-5.5,1-7.5,3c-2,2-2.9,4.7-2.9,8.1H754.2z"/>
	<path d="M791,68.1V2.8h21.2c8,0,13.2,0.3,15.7,1c3.7,1,6.9,3.1,9.4,6.4c2.5,3.3,3.8,7.5,3.8,12.7c0,4-0.7,7.4-2.2,10.1
		c-1.5,2.7-3.3,4.9-5.5,6.4c-2.2,1.6-4.5,2.6-6.8,3.1c-3.1,0.6-7.7,0.9-13.7,0.9h-8.6v24.6H791z M804.2,13.9v18.5h7.2
		c5.2,0,8.7-0.3,10.4-1c1.8-0.7,3.1-1.8,4.1-3.2c1-1.5,1.5-3.1,1.5-5.1c0-2.4-0.7-4.3-2.1-5.9c-1.4-1.5-3.2-2.5-5.3-2.9
		c-1.6-0.3-4.7-0.4-9.5-0.4H804.2z"/>
	<path d="M849.9,68.1V2.8h12.5v65.3H849.9z"/>
	<path d="M884.6,35.3l-11.4-2c1.3-4.6,3.5-8,6.6-10.2s7.7-3.3,13.9-3.3c5.6,0,9.7,0.7,12.5,2c2.7,1.3,4.7,3,5.8,5
		c1.1,2,1.7,5.8,1.7,11.2l-0.1,14.6c0,4.2,0.2,7.2,0.6,9.2c0.4,2,1.1,4.1,2.2,6.3H904c-0.3-0.8-0.7-2.1-1.2-3.7
		c-0.2-0.7-0.4-1.2-0.4-1.5c-2.1,2.1-4.4,3.6-6.9,4.7c-2.4,1-5,1.6-7.8,1.6c-4.9,0-8.7-1.3-11.5-4c-2.8-2.6-4.2-6-4.2-10
		c0-2.7,0.6-5.1,1.9-7.1c1.3-2.1,3.1-3.7,5.4-4.8c2.3-1.1,5.6-2.1,10-2.9c5.8-1.1,9.9-2.1,12.2-3.1V36c0-2.4-0.6-4.1-1.8-5.1
		s-3.4-1.5-6.7-1.5c-2.2,0-4,0.4-5.2,1.3C886.4,31.5,885.4,33.1,884.6,35.3z M901.4,45.4c-1.6,0.5-4.1,1.2-7.6,1.9
		c-3.5,0.7-5.7,1.5-6.8,2.2c-1.6,1.2-2.4,2.6-2.4,4.4c0,1.8,0.7,3.3,2,4.5c1.3,1.3,3,1.9,5,1.9c2.3,0,4.4-0.7,6.5-2.2
		c1.5-1.1,2.5-2.5,3-4.1c0.3-1.1,0.5-3.1,0.5-6.1V45.4z"/>
	<path d="M969,68.1h-12.5V44c0-5.1-0.3-8.4-0.8-9.9c-0.5-1.5-1.4-2.7-2.6-3.5c-1.2-0.8-2.6-1.2-4.3-1.2c-2.2,0-4.1,0.6-5.8,1.8
		c-1.7,1.2-2.9,2.8-3.5,4.7c-0.6,2-1,5.6-1,10.9v21.4h-12.5V20.8h11.6v6.9c4.1-5.3,9.3-8,15.6-8c2.8,0,5.3,0.5,7.6,1.5
		c2.3,1,4,2.3,5.2,3.8c1.2,1.5,2,3.3,2.4,5.3c0.5,2,0.7,4.8,0.7,8.4V68.1z"/>
	<path d="M977.3,54.6l12.6-1.9c0.5,2.4,1.6,4.3,3.3,5.5s3.9,1.9,6.9,1.9c3.2,0,5.7-0.6,7.3-1.8c1.1-0.8,1.6-1.9,1.6-3.3
		c0-0.9-0.3-1.7-0.9-2.4c-0.6-0.6-2-1.1-4.2-1.6c-10.1-2.2-16.5-4.3-19.2-6.1c-3.7-2.6-5.6-6.1-5.6-10.6c0-4.1,1.6-7.5,4.9-10.3
		c3.2-2.8,8.3-4.2,15.1-4.2c6.5,0,11.3,1.1,14.4,3.2c3.1,2.1,5.3,5.2,6.5,9.4l-11.8,2.2c-0.5-1.8-1.5-3.3-2.9-4.2
		c-1.4-1-3.4-1.5-6-1.5c-3.3,0-5.7,0.5-7.1,1.4c-1,0.7-1.4,1.5-1.4,2.5c0,0.9,0.4,1.6,1.2,2.3c1.1,0.8,5,2,11.7,3.5
		c6.7,1.5,11.3,3.4,14,5.6c2.6,2.2,3.9,5.3,3.9,9.3c0,4.3-1.8,8.1-5.4,11.2c-3.6,3.1-9,4.7-16.1,4.7c-6.4,0-11.5-1.3-15.3-3.9
		C980.9,62.7,978.4,59.1,977.3,54.6z"/>
</g>
<g>
	<path d="M366.6,121.2v-18.1h-2.9v-2.8h2.9v-2.2c0-1.6,0.2-2.9,0.6-3.7c0.4-0.8,1-1.4,1.7-1.9c0.8-0.4,1.8-0.6,2.9-0.6
		c0.9,0,1.9,0.1,3,0.4l-0.5,3.1c-0.7-0.1-1.3-0.2-1.9-0.2c-1,0-1.6,0.2-2.1,0.7s-0.6,1.3-0.6,2.6v1.9h3.7v2.8h-3.7v18.1H366.6z"/>
	<path d="M375.9,121.2v-20.9h2.9v3.2c0.7-1.5,1.4-2.4,2-2.9c0.6-0.5,1.3-0.7,2.1-0.7c1.1,0,2.2,0.4,3.3,1.1l-1.1,3.3
		c-0.8-0.5-1.6-0.8-2.3-0.8c-0.7,0-1.3,0.2-1.9,0.6c-0.6,0.4-1,1-1.2,1.8c-0.4,1.3-0.6,2.8-0.6,4.3v10.9H375.9z"/>
	<path d="M386.9,110.8c0-3.6,0.8-6.3,2.5-8.2c1.7-1.8,3.8-2.8,6.4-2.8c2.5,0,4.6,0.9,6.3,2.8c1.7,1.8,2.6,4.5,2.6,7.9
		c0,3.7-0.8,6.5-2.5,8.4c-1.7,1.8-3.8,2.8-6.4,2.8c-2.5,0-4.7-0.9-6.4-2.8C387.7,117.1,386.9,114.4,386.9,110.8z M390.2,110.8
		c0,2.7,0.5,4.7,1.6,6c1.1,1.3,2.4,2,4.1,2c1.5,0,2.8-0.7,3.9-2c1.1-1.3,1.6-3.3,1.6-6c0-2.7-0.5-4.7-1.6-6c-1.1-1.3-2.4-2-4.1-2
		c-1.5,0-2.8,0.7-3.9,2C390.7,106.1,390.2,108.1,390.2,110.8z"/>
	<path d="M408.5,121.2v-20.9h2.9v2.9c0.6-1.1,1.5-1.9,2.5-2.5c1-0.6,2.1-0.9,3.3-0.9c1.3,0,2.5,0.3,3.4,0.9s1.6,1.5,2,2.7
		c0.8-1.2,1.6-2.1,2.6-2.7s2.1-0.9,3.3-0.9c1.8,0,3.3,0.6,4.3,1.7c1.1,1.1,1.6,2.9,1.6,5.3v14.3h-3.2v-13.2c0-1.5-0.1-2.6-0.4-3.2
		c-0.2-0.6-0.6-1.1-1.2-1.4c-0.5-0.3-1.1-0.5-1.8-0.5c-1.4,0-2.5,0.5-3.4,1.5c-0.9,1-1.3,2.5-1.3,4.7v12.1h-3.2v-13.6
		c0-1.7-0.3-3-0.9-3.7c-0.6-0.7-1.4-1.1-2.4-1.1c-1.5,0-2.6,0.5-3.5,1.6c-0.9,1.1-1.3,3-1.3,5.9v10.8H408.5z"/>
</g>
<line class="st2" x1="337.3" y1="2.1" x2="337.3" y2="69.2"/>
</svg>
