<?xml version="1.0" standalone="no"?>
<!DOCTYPE svg PUBLIC "-//W3C//DTD SVG 20010904//EN"
 "http://www.w3.org/TR/2001/REC-SVG-20010904/DTD/svg10.dtd">
<svg version="1.0" xmlns="http://www.w3.org/2000/svg"
 width="912.000000pt" height="912.000000pt" viewBox="0 0 912.000000 912.000000"
 preserveAspectRatio="xMidYMid meet">
<metadata>
Created by potrace 1.16, written by Peter Selinger 2001-2019
</metadata>
<g transform="translate(0.000000,912.000000) scale(0.100000,-0.100000)"
fill="#000000" stroke="none">
<path d="M2940 6419 c-382 -20 -728 -165 -955 -401 -137 -140 -188 -225 -250
-411 -118 -353 -77 -735 112 -1056 145 -246 348 -444 814 -793 81 -60 198
-180 218 -223 31 -65 28 -130 -7 -186 -48 -74 -77 -90 -197 -109 -160 -25
-662 42 -930 124 -27 9 -53 12 -57 8 -5 -5 -7 -293 -6 -642 l3 -633 45 -13
c64 -19 324 -70 455 -89 309 -46 726 -59 955 -31 338 42 594 141 807 313 65
52 78 64 149 148 171 202 252 415 285 758 30 307 -59 634 -255 932 -129 196
-284 354 -606 615 -156 126 -249 213 -265 246 -36 76 11 157 107 186 56 17
339 17 467 1 52 -7 98 -10 103 -7 10 7 11 1181 0 1188 -11 6 -114 20 -387 50
-247 27 -421 35 -605 25z m463 -610 c15 -9 17 -21 15 -92 l-3 -82 -50 2 c-27
1 -121 5 -209 9 -412 18 -619 -103 -666 -389 -22 -133 14 -265 111 -408 23
-35 45 -66 48 -69 4 -3 26 -30 51 -60 74 -90 240 -251 435 -420 89 -78 311
-299 364 -365 105 -128 221 -322 221 -369 0 -8 4 -17 9 -20 33 -21 32 -422 0
-442 -5 -3 -9 -14 -9 -25 0 -10 -4 -27 -9 -37 -5 -9 -19 -39 -32 -67 -34 -72
-114 -168 -191 -231 -66 -53 -172 -114 -200 -114 -8 0 -18 -4 -23 -8 -15 -13
-123 -43 -220 -63 -74 -15 -436 -15 -520 -1 -33 6 -100 16 -150 22 -107 14
-152 27 -157 43 -1 7 -3 44 -3 82 l0 70 30 -1 c17 -1 64 -7 105 -13 530 -84
870 -32 1065 163 77 77 114 143 144 252 13 50 15 274 2 306 -5 13 -19 50 -32
83 -42 112 -185 302 -325 434 -145 137 -202 188 -284 260 -107 94 -346 333
-385 386 -17 22 -33 42 -36 45 -15 13 -107 160 -128 205 -30 63 -36 80 -50
131 -13 49 -15 283 -2 316 5 13 14 41 21 63 29 97 81 174 166 246 55 47 167
109 196 109 8 0 18 4 23 8 10 8 57 23 120 38 98 23 516 25 558 3z"/>
<path d="M4689 6319 c-5 -3 -8 -872 -7 -2135 l3 -2129 675 0 675 0 0 510 0
510 25 2 c14 1 106 7 205 13 408 24 671 87 946 226 228 114 408 269 539 465
105 157 177 341 222 560 20 102 23 141 23 364 -1 221 -3 262 -23 355 -30 135
-90 317 -138 411 -249 498 -786 790 -1539 839 -160 11 -1591 19 -1606 9z
m1591 -1154 c59 -11 153 -54 192 -88 33 -29 108 -145 108 -168 0 -10 4 -20 9
-23 10 -6 18 -55 27 -160 15 -166 -62 -354 -175 -429 -75 -50 -260 -93 -361
-86 l-45 4 -3 483 -2 483 107 -4 c60 -3 124 -8 143 -12z m-633 -1241 c-3 -3
-12 -4 -19 -1 -8 3 -5 6 6 6 11 1 17 -2 13 -5z m-46 -74 c14 0 10 -60 -5 -76
-18 -18 -24 -18 -42 1 -9 8 -11 15 -5 15 15 0 14 27 -1 33 -7 3 -3 6 10 6 18
1 22 7 23 34 1 23 3 26 6 10 2 -13 9 -23 14 -23z m126 14 c-3 -3 -12 -4 -19
-1 -8 3 -5 6 6 6 11 1 17 -2 13 -5z"/>
</g>
</svg>
