<?xml version="1.0" standalone="no"?>
<!DOCTYPE svg PUBLIC "-//W3C//DTD SVG 20010904//EN"
 "http://www.w3.org/TR/2001/REC-SVG-20010904/DTD/svg10.dtd">
<svg version="1.0" xmlns="http://www.w3.org/2000/svg"
 width="732.000000pt" height="230.000000pt" viewBox="0 0 732.000000 230.000000"
 preserveAspectRatio="xMidYMid meet">
<metadata>
Created by potrace 1.16, written by Peter Selinger 2001-2019
</metadata>
<g transform="translate(0.000000,230.000000) scale(0.100000,-0.100000)"
fill="#000000" stroke="none">
<path d="M738 2143 c-44 -62 -98 -148 -98 -156 0 -3 -22 -41 -48 -84 -26 -43
-56 -95 -65 -115 -10 -20 -24 -43 -32 -51 -20 -21 -175 -321 -175 -340 0 -11
13 -17 48 -22 26 -3 55 -10 64 -16 10 -5 29 -9 42 -9 14 0 38 -5 53 -11 15 -6
37 -15 48 -20 11 -4 38 -13 59 -20 l39 -12 -24 -13 c-13 -7 -32 -13 -42 -14
-9 0 -25 -4 -35 -9 -9 -5 -57 -28 -107 -51 -49 -22 -101 -48 -115 -56 -14 -8
-33 -18 -42 -21 -10 -3 -18 -9 -18 -14 0 -5 -5 -9 -11 -9 -12 0 -131 -79 -141
-94 -14 -20 -8 -22 80 -34 272 -37 541 -166 1172 -562 399 -250 420 -263 420
-258 3 22 14 103 25 188 8 58 21 161 30 230 22 195 36 293 40 300 5 7 32 216
42 310 l5 55 -122 130 c-158 167 -399 405 -411 405 -5 0 -26 17 -47 38 -93 93
-288 225 -467 316 -55 28 -101 54 -103 58 -9 19 -33 4 -64 -39z m357 -379 c55
-37 123 -84 151 -105 28 -22 55 -39 61 -39 6 0 25 31 44 70 19 38 38 68 43 67
5 -2 24 -30 41 -63 18 -32 42 -77 55 -99 12 -22 45 -83 72 -135 27 -52 53 -99
57 -105 5 -5 -5 -55 -21 -110 -16 -55 -33 -122 -38 -150 -14 -78 -21 -108 -30
-130 -5 -11 -11 -36 -15 -55 -14 -85 -17 -90 -40 -90 -12 0 -33 9 -46 21 -13
11 -36 28 -51 37 -16 9 -28 20 -28 24 0 4 -6 8 -13 8 -7 0 -23 9 -35 20 -12
11 -25 20 -30 20 -4 0 -17 8 -28 18 -10 9 -31 23 -46 31 -16 8 -28 18 -28 23
0 4 -6 8 -13 8 -7 0 -29 13 -49 30 -47 39 -180 116 -312 180 -58 28 -106 54
-106 58 0 12 104 217 112 220 5 2 8 12 8 23 0 10 5 19 10 19 6 0 10 11 10 24
0 21 -13 30 -102 68 -57 25 -124 51 -150 59 -27 7 -48 16 -48 20 0 9 142 54
215 68 53 11 174 26 230 30 11 0 65 -29 120 -65z"/>
<path d="M7055 980 c-17 -5 -44 -23 -60 -40 -27 -28 -30 -38 -30 -97 0 -63 1
-66 38 -98 67 -58 136 -56 199 7 35 35 38 43 38 92 0 48 -4 58 -37 94 -42 45
-91 59 -148 42z m88 -34 c90 -37 89 -165 -1 -203 -43 -18 -94 -8 -124 24 -19
20 -23 35 -22 80 0 49 4 59 29 79 25 20 39 26 78 33 4 0 22 -5 40 -13z"/>
<path d="M7044 906 c-3 -7 -4 -40 -2 -72 2 -44 7 -59 18 -59 8 0 16 10 18 23
4 28 10 28 44 -5 32 -31 59 -21 34 12 -12 16 -12 22 2 42 12 19 12 29 4 48
-10 22 -18 25 -62 25 -34 0 -52 -5 -56 -14z m84 -33 c2 -8 -6 -13 -22 -13 -17
0 -26 5 -26 16 0 19 41 16 48 -3z"/>
<path d="M2595 964 c-137 -34 -255 -124 -313 -240 -41 -81 -54 -134 -54 -224
0 -269 197 -464 467 -465 198 0 354 97 436 270 91 194 33 446 -133 569 -93 70
-149 89 -273 92 -60 2 -119 1 -130 -2z m234 -177 c57 -27 104 -74 138 -140 25
-46 28 -63 28 -147 0 -84 -3 -101 -27 -146 -59 -111 -145 -164 -269 -164 -91
0 -157 28 -214 92 -60 66 -80 120 -80 218 0 71 4 94 26 140 73 155 246 219
398 147z"/>
<path d="M3315 948 c-3 -7 -4 -211 -3 -453 l3 -440 80 0 80 0 5 140 5 140 145
6 c174 7 219 21 295 91 65 59 95 128 95 218 0 154 -97 267 -258 299 -78 16
-441 15 -447 -1z m438 -162 c57 -24 90 -69 95 -128 5 -67 -23 -113 -88 -145
-38 -20 -60 -23 -162 -23 l-118 0 0 155 0 155 120 0 c80 0 131 -5 153 -14z"/>
<path d="M4094 947 c-3 -8 -4 -43 -2 -78 l3 -64 137 -3 138 -3 2 -372 3 -372
80 0 80 0 5 370 5 370 140 5 140 5 0 75 0 75 -363 3 c-299 2 -363 0 -368 -11z"/>
<path d="M4958 953 c-2 -4 -1 -150 2 -323 6 -300 7 -318 29 -374 63 -159 234
-246 427 -217 178 26 281 124 314 298 7 37 10 162 8 338 l-3 280 -80 0 -80 0
-5 -310 c-5 -293 -6 -312 -26 -350 -41 -75 -97 -105 -197 -105 -85 0 -141 29
-182 95 l-30 48 -5 311 -5 311 -82 3 c-45 1 -83 -1 -85 -5z"/>
<path d="M5905 948 c-3 -7 -4 -211 -3 -453 l3 -440 80 0 80 0 3 303 c1 166 6
302 10 302 4 0 65 -89 137 -196 l129 -196 21 24 c11 14 74 104 140 202 l120
176 5 -307 5 -308 80 0 80 0 0 450 0 450 -88 0 -89 0 -124 -195 c-69 -107
-130 -200 -137 -207 -9 -9 -41 33 -143 195 l-131 207 -87 3 c-63 2 -88 -1 -91
-10z"/>
</g>
</svg>
