<svg xmlns="http://www.w3.org/2000/svg" aria-describedby="ums-logo" focusable="false" width="295" height="45"><title id="ums-logo">UnitedHealthCare</title><path d="M29.815 18.948h7.246v.971c-1.96.121-2.144.479-2.144 2.047v12.995c0 2.804 1.601 4.251 3.832 4.251 2.57 0 4.138-1.628 4.138-4.312V22.267c0-1.567-.483-2.231-2.325-2.345v-.971h5.785v.971c-1.839.121-2.325.781-2.325 2.345v11.97c0 3.735-1.648 5.943-5.845 5.943-4.198 0-6.218-2.295-6.218-6.067V21.966c0-1.568-.181-1.93-2.144-2.047zM45.895 39.691v-.968c1.447-.064 1.933-.607 1.933-1.515v-9.433c0-1.303-.362-1.514-1.99-1.578v-.938l4.412-.201v2.925h.06c.814-1.675 1.994-3.082 4.047-3.082 2.506 0 3.685 1.631 3.685 4.288v8.04c0 1.021.422 1.443 1.869 1.507v.968h-4.472V28.951c0-1.994-.757-2.657-1.785-2.657-1.598 0-3.233 2.111-3.233 5.069v5.852c0 .901.482 1.444 1.933 1.508v.968zM60.578 39.691v-.968c1.447-.064 1.926-.607 1.926-1.515v-9.601c0-1.299-.361-1.511-1.926-1.571v-.978l4.526-.164v12.314c0 .908.486 1.451 1.933 1.515v.968zm4.526-19.095c0 1.145-.637 1.929-1.544 1.929-.908 0-1.541-.784-1.541-1.929 0-1.146.636-1.933 1.541-1.933.904 0 1.544.78 1.544 1.933M71.69 19.701v5.555h3.635v1.135H71.69v10.643c0 1.34.452 1.876 1.273 1.876 1.005 0 1.755-.636 1.755-3.842v-.844h.992v1.42c0 3.055-1.119 4.402-3.394 4.402-2.01 0-3.199-1.256-3.199-3.685v-9.97h-1.876v-.898c2.174-.904 3.32-1.932 3.504-5.795zM79.73 31.242c0-3.866 1.146-5.36 2.864-5.36 1.598 0 2.503 1.511 2.503 5.36zm8.321 1.136c0-4.339-2.113-7.477-5.457-7.477-3.41 0-5.822 3.138-5.822 7.564 0 3.782 2.476 7.584 6.214 7.584 3.377 0 4.858-2.619 5.132-5.316l-.968-.181c-.305 2.06-1.236 4.355-3.862 4.355-2.01 0-3.558-2.302-3.558-6.536zM92.524 32.555c0-4.65 1.082-6.519 2.743-6.519 1.836 0 2.952 2.235 2.952 6.519 0 5.193-1.602 6.519-3.196 6.519-1.504 0-2.499-1.872-2.499-6.519m3.735-12.666c1.568.06 1.96.268 1.96 1.568v5.423l-.061.031c-.603-1.173-1.624-2.01-3.041-2.01-3.166 0-5.551 3.252-5.551 7.631 0 4.737 2.505 7.524 5.216 7.524 1.839 0 2.834-1.065 3.497-2.482h.064v2.127l4.224-.181v-.962c-1.203.024-1.749-.455-1.749-2.09V18.76l-4.556.194zM103.314 39.691v-.968c1.812-.124 2.117-.486 2.117-2.057V21.963c0-1.562-.305-1.923-2.117-2.041v-.971h7.3v.971c-1.866.118-2.228.479-2.228 2.041v6.251h6.519v-6.251c0-1.562-.365-1.923-2.231-2.041v-.971h7.296v.971c-1.809.118-2.11.479-2.11 2.041v14.703c0 1.574.305 1.936 2.11 2.057v.968h-7.31v-.968c1.866-.124 2.232-.486 2.232-2.057v-7.313h-6.506v7.313c0 1.574.362 1.936 2.228 2.057v.968zM123.364 31.242c0-3.866 1.142-5.36 2.864-5.36 1.598 0 2.502 1.511 2.502 5.36zm8.324 1.136c0-4.339-2.11-7.477-5.457-7.477-3.41 0-5.825 3.138-5.825 7.564 0 3.782 2.472 7.584 6.217 7.584 3.374 0 4.858-2.619 5.126-5.316l-.965-.181c-.302 2.06-1.236 4.355-3.859 4.355-2.01 0-3.558-2.302-3.558-6.536zM139.457 33.691c0 3.41-1.39 5.223-2.931 5.223-.935 0-1.658-.784-1.658-2.386 0-2.566 2.17-3.711 4.589-4.559zm4.097 1.819c-.063 2.174-.301 2.837-.874 2.837-.416 0-.63-.392-.63-1.263v-8.381c0-2.261-1.3-3.802-4.69-3.802-2.623 0-4.559 1.631-4.559 3.685 0 1.206.603 1.812 1.45 1.812.848 0 1.511-.67 1.511-1.752 0-.878-.301-1.601-1.27-1.675a3.17 3.17 0 0 1 2.567-1.089c1.598 0 2.385.757 2.385 2.476v2.462c-2.6.972-7.37 2.392-7.37 5.829 0 2.01 1.34 3.404 3.668 3.404 2.111 0 3.015-1.005 3.745-2.345h.061c.181 1.624 1.005 2.345 2.442 2.345 1.866 0 2.506-1.34 2.506-4.52z" fill="#173b87"></path><path d="M144.124 39.691v-.968c1.447-.064 1.933-.607 1.933-1.508V21.517c0-1.028-.516-1.568-2.01-1.628v-.962l4.603-.167v18.462c0 .901.485 1.444 1.932 1.507v.968zM154.951 19.701v5.555h3.638v1.135h-3.638v10.643c0 1.34.455 1.876 1.273 1.876 1.005 0 1.759-.636 1.759-3.842v-.844h.968v1.42c0 3.055-1.122 4.402-3.394 4.402-2.01 0-3.199-1.256-3.199-3.685v-9.97h-1.869v-.898c2.171-.904 3.316-1.932 3.5-5.795z" fill="#173b87"></path><path d="M158.844 39.691v-.968c1.447-.064 1.936-.607 1.936-1.508V21.44c0-1.3-.365-1.508-2.01-1.568v-.928l4.599-.184v8.861h.064c.603-1.34 1.752-2.72 3.776-2.72 2.324 0 3.772 1.631 3.772 4.288v8.04c0 .901.516 1.443 1.869 1.507v.968h-4.462V29.095c0-2.107-.757-2.804-1.846-2.804-1.511 0-3.173 1.99-3.173 4.887v6.03c0 .902.486 1.444 1.937 1.508v.968zM184.072 34.686c-.274 2.854-1.597 5.407-4.927 5.407-3.062 0-5.893-2.737-5.893-7.206 0-3.779 2.616-8.04 6.264-8.04 2.57 0 4.191 1.598 4.191 3.95 0 1.443-.449 2.231-1.531 2.231-.844 0-1.413-.727-1.413-1.809 0-1.297.452-1.809 1.229-1.809.158.015.311.055.456.12l.057-.057a2.602 2.602 0 0 0-2.533-1.675c-2.251-.003-3.762 2.285-3.762 6.576 0 5.109 1.578 6.563 3.35 6.563 2.449 0 3.233-2.244 3.564-4.378zM192.488 33.681c0 3.434-1.397 5.253-2.948 5.253-.945 0-1.675-.784-1.675-2.399 0-2.583 2.187-3.738 4.623-4.589zm4.107 1.883c-.064 2.197-.298 2.871-.875 2.871-.415 0-.633-.399-.633-1.283v-8.473c0-2.291-1.3-3.819-4.71-3.819-2.646 0-4.573 1.622-4.573 3.685 0 1.223.603 1.833 1.444 1.833s1.504-.67 1.504-1.769c0-.884-.298-1.618-1.263-1.708a3.174 3.174 0 0 1 2.58-1.096c1.621 0 2.419.761 2.419 2.499v2.516c-2.613.951-7.404 2.389-7.404 5.852 0 2.01 1.357 3.431 3.685 3.431 2.127 0 3.042-1.005 3.769-2.372h.087c.181 1.642 1.005 2.372 2.452 2.372 1.859 0 2.483-1.364 2.483-4.559zM197.918 39.711v-.945c1.27-.06 1.755-.606 1.755-1.521v-8.261c0-2.063-.365-2.733-1.879-2.79v-.979l4.174-.177v3.504h.06c.392-1.578 1.468-3.685 3.27-3.685 1.116 0 2.204.918 2.204 2.623 0 1.307-.629 1.973-1.417 1.973-.67 0-1.363-.422-1.363-1.792 0-.73.425-1.491 1.296-1.491a.892.892 0 0 0-.777-.375c-2.04.027-2.968 4.472-2.968 7.112v4.322c0 .911.479 1.463 2.516 1.52v.945zM210.454 31.266c0-3.923 1.149-5.458 2.877-5.458 1.605 0 2.516 1.531 2.516 5.458zm8.341 1.155c0-4.405-2.104-7.561-5.464-7.561-3.42 0-5.822 3.156-5.822 7.652 0 3.772 2.466 7.581 6.218 7.581 3.39 0 4.857-2.63 5.125-5.317l-.945-.187c-.301 2.057-1.242 4.355-3.876 4.355-2.033 0-3.574-2.288-3.574-6.516zM219.881 21.624a1.923 1.923 0 1 1-1.93 1.92 1.907 1.907 0 0 1 1.93-1.92m0-.335a2.26 2.26 0 1 0 .858 4.342 2.256 2.256 0 0 0 1.389-2.094 2.254 2.254 0 0 0-2.247-2.248m-.426 2.402h.419a.337.337 0 0 1 .392.292 2.73 2.73 0 0 0 .107.867h.415a3.697 3.697 0 0 1-.107-.67c0-.522-.127-.623-.452-.67a.629.629 0 0 0 .566-.606.649.649 0 0 0-.723-.643h-1.036v2.603h.426zm0-1.152h.543a.356.356 0 0 1 .375.398.373.373 0 0 1-.375.419h-.543zM3.528 39.691h.616l.087-.017h.054l.09-.02h.047l.097-.03.05-.017.098-.033.05-.021.1-.04a.214.214 0 0 0 .054-.023l.107-.047.05-.024.111-.057a.122.122 0 0 0 .05-.03c.039-.018.077-.038.114-.06l.05-.03.118-.07.05-.037c.039-.026.077-.054.114-.084l.053-.04.118-.091.05-.047c.041-.03.08-.062.117-.097l.054-.053c.043-.034.077-.071.117-.108a.596.596 0 0 0 .06-.063l.111-.114a.785.785 0 0 0 .067-.074 1.72 1.72 0 0 0 .104-.12.972.972 0 0 0 .067-.077c.036-.044.07-.084.103-.131l.044-.181.107-.141.064-.097.097-.151.07-.11c.031-.054.064-.101.094-.154.03-.054.044-.077.064-.118l.097-.167c.023-.047.04-.09.064-.127.023-.037.063-.118.093-.181.031-.064.047-.101.071-.148.023-.047.057-.117.083-.177l.074-.171.077-.178.071-.177c.023-.067.05-.127.077-.194.026-.067.043-.121.063-.181.02-.061.057-.141.077-.211.02-.071.054-.171.084-.258.03-.087.037-.104.054-.161.043-.144.087-.292.13-.442.6-2.161.751-6.54.751-9.451V6.261L0 11.122v19.172c0 7.313 1.313 9.065 2.941 9.35h-.023z" fill="#173b87"></path><path d="M5.806 41.654c3.574-.479 5.658-4.469 6.154-6.405.797-2.68.944-6.05.944-9.839V4.208L9.068 6.261l2.01.449v17.005c0 4.381-.1 8.221-.814 10.767-1.005 3.597-2.824 5.055-4.09 5.527l-3.243-.365h-.013a2.8 2.8 0 0 0 2.08 1.966z" fill="#838e98"></path><path d="M4.995 41.607a3.034 3.034 0 0 0 2.04 1.829l.831.077c3.738-.033 6.184-3.685 7.062-5.598 1.266-2.834 1.879-6.861 1.879-12.659V2.121l-3.903 2.087 2.064.459v19.718c0 4.927-.198 9.105-1.39 12.23-1.049 2.68-2.935 4.774-5.237 5.34l-2.532-.301z" fill="#838e98"></path><path d="M16.8 2.121l2.104.465v21.799c0 6.7-.67 11.262-2.177 14.344-1.397 2.885-3.739 4.747-5.97 5.133l-2.898-.335-.824-.091a3.842 3.842 0 0 0 3.239 1.856c1.803.074 3.273-.71 4.69-1.648 4.389-3.062 5.806-9.876 5.806-19.078V0z" fill="#838e98"></path></svg>