<svg xmlns="http://www.w3.org/2000/svg" width="342" height="90" viewBox="0 0 500 400"><g><path d="M98.652 150.434L96.112 150.844C94.207 151.043 93.572 155.613 93.572 156.604 94.525 189.577 83.396 215.4 68.189 228.831 61.626 223.145 55.064 214.406 50.439 204.277 46.465 214.207 41.394 222.35 34.943 228.831 21.729 217.387 10.157 203.482 10.002 158.194 10.002 152.831 8.573 150.638 5.399 150.638L2.064 150.638C.319 150.638 0 150.434 0 148.796 0 148.185 0 147.168.794 147.168L16.09 147.168C18.433 147.168 19.525 147.367 19.525 149.209L19.525 158.195C19.525 179.847 22.671 212.222 34.942 224.14 39.819 218.382 45.669 210.235 48.37 198.516 45.033 186.201 42.651 175.873 42.965 156.605 42.965 153.627 42.492 151.838 39.975 151.242L35.885 150.228C34.941 149.821 34.627 149.003 34.627 148.593 34.627 147.571 34.942 147.169 35.885 147.169L61.945 147.169C62.266 147.169 62.425 147.982 62.425 148.797 62.425 149.821 62.266 150.229 61.784 150.229L59.063 150.229C54.262 150.229 52.661 153.429 52.82 158.196 53.461 176.47 52.025 207.854 68.187 224.141 79.712 215.8 84.51 176.47 83.715 158.196 83.554 154.025 80.513 150.846 77.792 150.846L76.671 150.846C74.911 150.846 73.95 150.229 73.95 149.004 73.95 147.572 74.27 146.971 76.831 147.17L85.304 147.573 99.761 146.972C100.555 146.972 100.873009 147.171 100.873009 148.187 100.875 149.003 100.556 150.024 98.652 150.434zM148.865 228.124L123.148 228.124C122.196 228.124 121.878 227.747 121.878 226.802 121.878 226.234 121.878 225.48 122.673 225.291L127.277 224.692C129.817 224.292 130.77 221.902 130.77 218.117L130.77 161.13C130.77 152.96 128.388 150.168 123.625 150.168L120.927 150.168C120.451 150.168 119.974 149.602 119.974 148.657 119.974 147.9 120.45 147.335 120.768 147.335L147.278 147.335C148.231 147.335 148.548 147.712 148.548 148.657 148.548 149.037 148.231 150.168 147.914 150.168L143.151 151.167C140.611 151.766 139.975 153.559 139.975 157.345L139.975 214.332C139.975 222.5 142.04 225.292 146.801 225.292L149.5 225.292C149.977 225.292 150.134005 225.669 150.134005 226.612 150.135 227.37 149.977 228.124 148.865 228.124zM252.807 228.124L224.22 228.124C223.903 228.124 223.586 227.37 223.586 226.611 223.586 225.668 223.903 225.291 224.22 225.291L227.081 225.291C231.849 225.291 233.757 222.509 233.757 214.367L233.757 182.792C233.757 163.726 225.333 149.429 214.367 149.429 209.441 149.429 198.634 158.763 198.634 168.89L198.634 214.963C198.634 223.105 200.064 225.291 204.831 225.291L207.534 225.291C208.01 225.291 208.168 225.668 208.168 226.611 208.168 227.37 208.01 228.124 207.692 228.124L181.171 228.124C180.218 228.124 179.901 227.747 179.901 226.802 179.901 226.234 180.218 225.291 181.171 225.092L185.298 224.297C187.838 223.701 189.108 221.913 189.108 218.14L189.108 146.152C189.108 143.966 189.584 143.172 190.695 143.172 191.173 143.172 191.648 143.768 192.442 144.759L196.728 150.224 206.261 146.973C207.851 146.359 210.234 145.949 213.095 145.949 232.007 145.949 243.28 163.726 243.28 190.935L243.28 214.368C243.28 222.51 245.185 225.292 249.947 225.292L252.805 225.292C253.122 225.292 253.439021 225.669 253.439021 226.612 253.442 227.37 253.124 228.124 252.807 228.124zM388.108 231.306C385.716 231.306 383.8 231.107 382.205 230.713L374.863 228.527C369.067 226.744 367.778 226.545 367.455 224.165L365.07 207.114C364.912 206.123 365.07 205.328 365.388 205.328L366.975 204.933C367.454 204.734 367.617 205.328 368.259 206.52L373.092 215.442C377.894 224.364 383.16 228.131 390.342 228.131 399.437 228.131 405.024 221.785 405.024 211.08 405.024 202.749 402.79 201.363 388.748 194.026 369.71 184.111 367.134 180.743 367.134 170.629 367.134 152.628 386.353 144.144 398.164 144.144 403.27 144.144 405.185 145.326 405.185 149.076 405.185 150.064 405.025 151.247 404.706 152.429L403.43 157.168C402.63 160.322 401.675 161.509 400.077 161.509 399.28 161.509 398.48 160.915 396.409 158.151 394.333 155.389 390.185 153.417 386.833 153.417 380.291 153.417 374.864 156.968 374.864 165.274 374.864 171.819 377.577 174.593 389.227 179.948 408.041 188.475 412.805 192.837 412.805 205.327 412.805 221.587 403.587 231.306 388.108 231.306zM495.838 190.954C495.838 212.871 487.255 227.415 474.064 227.415 460.236 227.415 451.176 211.477 451.176 187.168 451.176 163.659 460.393 148.717 474.698 148.717 488.685 148.717 495.838 163.063 495.838 190.954zM506.824 188.167C506.824 164.059 492.82 145.24 474.541 145.24 454.833 145.24 440.225 163.461 440.225 187.968 440.225 212.871 454.038 230.248 474.065 230.248 492.819 230.249 506.824 212.673 506.824 188.167zM583.659 154.116L582.388 158.882C581.596 162.059 580.643 163.251 579.056 163.251 578.264 163.251 577.469 162.655 575.405 159.873 573.342 157.096 569.212 155.109 565.879 155.109 557.148 155.109 552.703 163.251 552.703 183.306L552.703 214.084C552.703 222.422 553.34 224.012 555.719 224.409L560.483 225.204C561.91 225.403 561.91 225.8 561.91 226.376 561.91 227.701 561.434 228.078 558.896 228.078L542.306 228.078 534.21 228.832C532.781 228.832 532.146 228.266 532.146 227.13 532.146 226.564 532.78 225.999 532.938 225.999L539.289 224.608C542.145 224.012 542.779 222.223 542.779 214.68 542.779 214.68 542.779 156.745 542.779 150.722 542.779 147.094 544.371 147.115 546.438 150.014 547.324 151.252 549.014 163.988 549.014 163.988 553.77 151.571 564.121 145.704 577.15 145.581 582.23 145.581 584.135005 146.972 584.135005 150.742 584.136 151.734 583.975 152.923 583.659 154.116z"></path><g transform="translate(269 145)"><path d="M20.04,40.968 L20.04,9.676 C20.04,7.694 19.723,4.708 33.055,4.708 C48.764,4.708 60.347,17.795 60.347,44.137 C60.347,44.567 60.321,44.942 60.316,45.362 L72.297,45.362 C72.343,44.236 72.394,43.11 72.394,41.958 C72.394,14.625 51.46,0.646 38.129,0.646 C26.069,0.646 20.833,1.639 17.18,1.639 L0.979,1.639 C0.184,1.639 0.184,2.661 0.184,3.275 C0.184,4.91 0.503,5.114 2.249,5.114 L5.582,5.114 C8.756,5.114 10.187,7.295 10.187,12.645 L10.187,45.361 L19.933,45.361 L20.04,40.968 Z"></path><path d="M20.04,43.779 L20.04,75.074 C20.04,77.056 19.723,80.042 33.055,80.042 C48.764,80.042 60.347,66.952 60.347,40.61 C60.347,40.182 60.321,39.805 60.316,39.387 L72.297,39.387 C72.343,40.513 72.394,41.639 72.394,42.791 C72.394,70.122 51.46,84.103 38.129,84.103 C26.069,84.103 20.833,83.11 17.18,83.11 L0.979,83.11 C0.184,83.11 0.184,82.086 0.184,81.474 C0.184,79.839 0.503,79.632 2.249,79.632 L5.582,79.632 C8.756,79.632 10.187,77.451 10.187,72.104 L10.187,39.388 L19.933,39.388 L20.04,43.779 Z"></path></g><path d="M357.105 23.789C355.331 59.506 297.544 111.13 282.677 123.845L280.646 123.845C286.8 110.713 290.628 94.244 290.628 86.231 290.628 83.786 290.29 80.705 289.818 77.36 283.569 84.576 280.264 93.676 278.932 99.201L277.774 99.201C276.128 87.389 270.923 76.832 263.057 66.667 255.98 57.521 237.14 39.566 235.661 26.372 234.206 13.387 244.279 6.806 255.226 6.806 265.581 6.806 275.989 15.917 277.353 30.99 277.353 30.99 277.353 31.208 277.048 31.276 276.743 31.345 276.63 31.145 276.63 31.145 274.742 25.529 268.846 12.164 255.46 12.164 241.718 12.164 239.389 22.645 240.553 26.605 241.671 30.403 242.067 32.777 259.186 49.897 276.306 67.016 280.382 79.477 280.382 79.477 282.174 76.673 285.322 73.528 288.718 70.193 287.683 63.698 286.662 57.173 286.904 52.924 287.37 44.772 295.954 32.481 305.304 38.251 315.902 44.79 308.653 59.047 294.192 72.895 297.143 79.774 299.131 92.171 299.131 92.171 348.043 57.932 350.28 30.547 350.723 24.975 351.305 17.638 348.314 8.694 339.544 7.506 321.7 5.089 306.184 17.859 299.642 24.272 299.642 24.272 299.385 24.421 299.248 24.217 299.113 24.014 299.244 23.872 299.244 23.872 314.42 4.268 327.025-.261 339.289.011 351.517.283 357.859 8.668 357.105 23.789zM291.627 67.322C288.684 59.078 286.837 43.322 297.382 43.84 301.531 44.043 303.132 46.008 303.409 48.993 303.961 54.952 297.512 61.468 291.627 67.322zM315.17 119.184C315.17 116.593 317.124 114.639 319.628 114.639 322.11 114.639 324.062 116.593 324.062 119.184 324.062 121.828 322.11 123.774 319.628 123.774 317.124 123.774 315.17 121.828 315.17 119.184zM319.628 124.679C322.615 124.679 325.162 122.365 325.162 119.184 325.162 116.045 322.616 113.733 319.628 113.733 316.617 113.733 314.07 116.045 314.07 119.184 314.07 122.365 316.617 124.679 319.628 124.679zM318.468 119.619L319.572 119.619 321.239 122.366 322.312 122.366 320.513 119.577C321.443 119.46 322.152 118.971 322.152 117.839 322.152 116.594 321.412 116.046 319.919 116.046L317.514 116.046 317.514 122.366 318.468 122.366 318.468 119.619zM318.468 118.81L318.468 116.854 319.773 116.854C320.442 116.854 321.151 116.997 321.151 117.782 321.151 118.752 320.427 118.811 319.613 118.811L318.468 118.811 318.468 118.81z"></path></g></svg>